<?xml version="1.0" standalone="no"?>
<!DOCTYPE svg PUBLIC "-//W3C//DTD SVG 20010904//EN"
 "http://www.w3.org/TR/2001/REC-SVG-20010904/DTD/svg10.dtd">
<svg version="1.0" xmlns="http://www.w3.org/2000/svg"
 width="260.000000pt" height="260.000000pt" viewBox="0 0 260.000000 260.000000"
 preserveAspectRatio="xMidYMid meet">
<metadata>
Created by potrace 1.14, written by Peter Selinger 2001-2017
</metadata>
<g transform="translate(0.000000,260.000000) scale(0.100000,-0.100000)"
fill="#000000" stroke="none">
<path d="M1055 2576 c-190 -40 -322 -94 -475 -194 -103 -68 -287 -249 -352
-347 -163 -247 -237 -504 -225 -780 3 -71 8 -141 12 -155 3 -14 8 -40 11 -58
17 -104 78 -267 141 -377 66 -116 115 -179 217 -280 112 -111 140 -133 243
-195 141 -85 258 -130 424 -166 117 -25 381 -25 497 0 460 99 812 400 972 831
25 67 48 151 56 200 3 22 9 58 14 80 9 40 7 304 -3 360 -57 326 -212 600 -459
806 -177 148 -385 242 -633 286 -16 3 -97 7 -180 8 -127 3 -167 0 -260 -19z
m1151 -926 c20 -7 52 -28 71 -46 19 -19 42 -34 51 -34 10 0 33 -13 51 -28 28
-23 34 -36 38 -77 3 -29 -1 -71 -10 -100 -14 -50 -14 -50 -55 -49 l-41 2 30
-38 c47 -59 50 -113 10 -195 -63 -127 -125 -152 -381 -149 -173 1 -231 11
-273 45 l-26 20 -28 -20 c-42 -31 -94 -37 -395 -40 -240 -2 -278 0 -278 12 0
13 -6 13 -44 2 -31 -10 -125 -14 -330 -15 l-287 -1 -59 36 c-33 20 -62 40 -64
44 -3 4 22 82 55 172 33 90 83 227 111 304 28 77 56 145 63 150 8 7 110 10
279 9 l266 -1 34 -27 c41 -31 46 -32 46 -6 0 10 8 23 18 28 9 5 134 8 278 7
232 -2 264 -4 292 -20 17 -10 34 -27 39 -37 7 -17 10 -16 40 11 18 16 42 32
52 36 73 23 382 26 447 5z"/>
<path d="M1850 1610 c-96 -10 -133 -40 -171 -140 -25 -67 -27 -124 -5 -149 22
-24 52 -29 231 -36 77 -4 144 -10 148 -14 13 -12 -3 -60 -23 -71 -26 -14 -267
-11 -278 4 -5 6 -8 19 -7 29 3 16 -4 18 -68 15 l-72 -3 -11 -55 c-22 -109 6
-123 260 -123 270 0 304 18 342 180 30 125 4 152 -145 159 -72 4 -206 11 -233
13 -15 2 -8 49 9 62 19 17 241 22 261 6 7 -5 10 -17 7 -26 -4 -15 3 -17 62
-15 38 1 71 2 75 3 12 2 20 99 9 119 -6 11 -28 26 -48 33 -39 13 -250 18 -343
9z"/>
<path d="M464 1602 c-13 -2 -25 -15 -31 -35 -10 -29 -160 -434 -179 -481 -7
-17 3 -18 267 -15 262 4 275 5 305 26 40 29 81 106 90 170 6 46 4 53 -15 65
-27 16 -26 22 3 36 28 12 72 99 79 155 6 48 -18 77 -65 78 -111 3 -436 4 -454
1z m357 -129 c13 -13 -5 -61 -25 -69 -20 -8 -265 -11 -276 -4 -14 9 11 79 28
82 39 7 264 0 273 -9z m-98 -182 c53 -1 57 -3 57 -24 0 -13 -10 -33 -22 -44
-21 -20 -35 -21 -170 -21 -162 0 -163 1 -133 58 8 15 19 30 25 32 5 1 49 2 97
1 49 -1 114 -2 146 -2z"/>
<path d="M1080 1586 c-4 -12 -38 -113 -74 -226 -37 -113 -74 -222 -82 -243 -8
-20 -14 -40 -14 -43 0 -3 120 -4 268 -2 232 3 271 6 300 21 76 41 124 197 73
238 l-22 18 24 15 c58 38 99 183 62 219 -19 20 -6 19 -298 21 -223 2 -229 2
-237 -18z m389 -110 c12 -8 -3 -56 -22 -68 -14 -9 -287 -11 -287 -2 0 4 5 23
11 43 l11 36 138 -1 c76 -1 143 -4 149 -8z m-39 -196 c4 -7 5 -21 3 -31 -11
-39 -31 -44 -188 -46 l-153 -1 11 36 c6 20 14 42 18 48 12 15 299 10 309 -6z"/>
</g>
</svg>
